<?xml version="1.0" standalone="no"?>
<!DOCTYPE svg PUBLIC "-//W3C//DTD SVG 20010904//EN"
 "http://www.w3.org/TR/2001/REC-SVG-20010904/DTD/svg10.dtd">
<svg version="1.0" xmlns="http://www.w3.org/2000/svg"
 width="450.000000pt" height="450.000000pt" viewBox="0 0 450.000000 450.000000"
 preserveAspectRatio="xMidYMid meet">
<metadata>
Created by potrace 1.16, written by Peter Selinger 2001-2019
</metadata>
<g transform="translate(0.000000,450.000000) scale(0.100000,-0.100000)"
fill="#000000" stroke="none">
<path d="M2050 3910 c-253 -30 -527 -132 -748 -280 -103 -69 -270 -223 -355
-327 -405 -499 -488 -1177 -217 -1768 120 -263 350 -524 608 -692 164 -108
402 -204 597 -241 130 -24 494 -24 620 1 113 22 285 78 393 128 352 162 648
460 816 822 173 371 199 806 72 1204 -181 572 -676 1013 -1272 1133 -114 23
-393 34 -514 20z m-708 -1301 c20 -41 89 -191 152 -334 133 -298 146 -322 178
-327 32 -4 53 -50 37 -80 -7 -13 -17 -26 -23 -30 -6 -4 -100 -8 -208 -8 -185
0 -199 1 -218 20 -38 38 -13 100 41 100 34 0 36 8 9 60 l-20 40 -109 0 -108 0
-18 -40 c-21 -47 -15 -57 35 -62 74 -7 78 -100 5 -114 -18 -3 -91 -4 -164 -2
-118 3 -134 5 -147 22 -30 42 -9 86 48 100 34 8 52 40 239 428 119 245 148
299 169 307 43 14 63 -2 102 -80z m1578 58 c25 -13 31 -13 41 -1 9 11 56 14
236 14 142 0 232 -4 245 -11 15 -8 28 -7 51 3 18 7 64 13 103 13 57 0 76 -4
93 -19 34 -30 26 -81 -15 -97 -22 -8 -24 -15 -24 -67 0 -183 -66 -277 -227
-325 l-73 -21 0 -103 0 -103 36 0 c54 0 74 -15 74 -55 0 -61 -16 -66 -254 -65
-114 1 -219 5 -232 10 -20 8 -24 17 -24 48 0 48 14 62 62 62 l38 0 0 104 c0
103 0 104 -25 110 -113 28 -192 85 -226 162 -11 24 -21 79 -25 138 -7 90 -9
98 -31 107 -19 7 -23 16 -23 48 0 57 27 73 118 66 28 -2 65 -10 82 -18z m-718
-4 c21 -19 24 -66 5 -82 -8 -6 -28 -14 -45 -17 l-32 -6 0 -90 c0 -52 4 -88 10
-86 5 2 56 41 114 87 l106 84 -33 16 c-25 13 -33 23 -35 51 -6 55 9 60 194 60
175 0 194 -5 194 -53 0 -35 -16 -51 -64 -67 -28 -9 -97 -55 -176 -119 -118
-93 -130 -105 -117 -120 8 -9 69 -84 135 -167 132 -166 171 -204 207 -204 25
0 55 -33 55 -60 0 -9 -9 -26 -20 -38 -20 -21 -28 -22 -223 -22 -167 0 -206 3
-225 16 -30 21 -30 76 0 96 22 15 22 15 -47 101 -37 48 -70 87 -72 87 -1 0 -3
-38 -3 -85 0 -60 4 -87 13 -89 67 -18 72 -21 75 -55 2 -21 -3 -40 -14 -52 -16
-17 -33 -19 -208 -19 -215 0 -239 6 -244 56 -4 41 20 64 64 64 25 0 34 4 35
18 1 29 1 556 0 573 -1 11 -14 18 -37 22 -20 3 -42 11 -50 18 -20 17 -18 76 4
88 10 6 100 11 216 11 172 0 202 -2 218 -17z"/>
</g>
</svg>
